<?xml version="1.0" encoding="UTF-8"?>
<svg width="65px" height="53px" viewBox="0 0 65 53" version="1.1" xmlns="http://www.w3.org/2000/svg" xmlns:xlink="http://www.w3.org/1999/xlink">
    <!-- Generator: Sketch 53.2 (72643) - https://sketchapp.com -->
    <title>Group 25</title>
    <desc>Created with Sketch.</desc>
    <defs>
        <polygon id="path-1" points="2.60838686e-05 0.0399722914 64.8751949 0.0399722914 64.8751949 52.8729017 2.60838686e-05 52.8729017"></polygon>
    </defs>
    <g id="Page-2" stroke="none" stroke-width="1" fill="none" fill-rule="evenodd">
        <g id="Jobs" transform="translate(-308.000000, -729.000000)">
            <g id="Group-7" transform="translate(218.000000, 729.000000)">
                <g id="Group-25" transform="translate(89.000000, 0.000000)">
                    <path d="M32.9702856,26 C32.5872196,25.6102879 32.2160295,25.2115005 31.8251303,24.8390184 C30.9235605,23.9800209 30.0032923,23.1453557 29.1080395,22.2782036 C28.4438646,21.6349091 27.835027,20.928745 27.3914436,20.0651441 C26.8090113,18.931783 26.8235405,17.7900042 27.419365,16.6847897 C28.0236542,15.5644497 28.9395006,14.9971773 30.1092924,15.0140126 C31.1583022,15.0292696 31.9757288,15.5647127 32.5793864,16.5198559 C32.8151388,16.8929956 33.1184837,16.897073 33.3495615,16.5245908 C34.0781704,15.3504566 35.320103,14.7838418 36.5256493,15.0756984 C37.7565903,15.3736052 38.6737,16.4400195 38.9153904,17.8560303 C39.0296028,18.5260247 38.9373738,19.1628745 38.667762,19.7707885 C38.4176067,20.3346412 38.0767385,20.8256285 37.6996104,21.2868908 C36.9568514,22.1953421 36.0900254,22.9479349 35.2579432,23.7449836 C34.4983807,24.4728495 33.7594119,25.2279413 33.0110938,25.9706697 C32.9984597,25.9832962 32.9825407,25.9914508 32.9702856,26" id="Fill-1" fill="#6A6A6A"></path>
                    <g id="Group-5" transform="translate(0.963415, 0.000000)">
                        <mask id="mask-2" fill="white">
                            <use xlink:href="#path-1"></use>
                        </mask>
                        <g id="Clip-4"></g>
                        <path d="M37.6266374,46.7913106 C37.7573977,46.7913106 37.8424172,46.6534089 37.7847661,46.5355887 C37.5051267,45.9642818 37.2480409,45.4252578 36.9599123,44.9033921 C36.9025146,44.7994257 36.6733041,44.7460444 36.5230312,44.745536 C33.8044347,44.7363849 31.0858382,44.735241 28.3672417,44.7475695 C28.2042982,44.7483321 27.9612768,44.8291667 27.8929825,44.9507998 C27.6100487,45.4538549 27.3630994,45.9773729 27.0905556,46.5357158 C27.0330312,46.6536631 27.117924,46.7913106 27.2488109,46.7913106 L37.6266374,46.7913106 Z M2.22203704,48.8271715 C2.13093567,48.8271715 2.0554191,48.8966942 2.04616959,48.9876966 C1.85180312,50.9250564 2.36635478,50.8903585 3.68662768,50.8894688 C20.0281092,50.87803 36.3698441,50.8822242 52.7114522,50.8822242 C55.7095614,50.8822242 58.7076706,50.8791739 61.7057797,50.8852746 C62.232115,50.8864185 62.7227193,50.7982122 62.825731,50.1993249 C62.8921248,49.8124376 62.8536062,49.4071211 62.8430897,48.9990084 C62.8405556,48.9031763 62.7621248,48.8271715 62.6667154,48.8271715 L2.22203704,48.8271715 Z M6.23873294,36.6024736 L58.6196101,36.6024736 C58.7131189,36.6024736 58.7904094,36.5285024 58.795731,36.4348309 C58.8048538,36.277229 58.8138499,36.1376751 58.8138499,35.997994 C58.8149903,25.7265432 58.8165107,15.4550923 58.8133431,5.18364149 C58.8127096,3.20929616 57.6238304,2.03401799 55.647729,2.03401799 C40.1720273,2.03376379 24.6963255,2.03414508 9.22075049,2.03452638 C7.24654971,2.03452638 6.06362573,3.21666787 6.06337232,5.19088609 C6.06261209,15.2293657 6.06261209,25.2678453 6.06223197,35.306452 L6.06223197,36.424536 C6.06223197,36.5222746 6.1412963,36.6024736 6.23873294,36.6024736 L6.23873294,36.6024736 Z M2.57846004,46.5638046 C2.53664717,46.6694233 2.60240741,46.7927086 2.71517544,46.8049101 C2.72049708,46.8055456 2.7255653,46.8057998 2.73063353,46.8057998 C9.93017544,46.8098669 17.1298441,46.8157134 24.3295127,46.7977926 C24.5350292,46.7972842 24.8268324,46.5879532 24.9303509,46.3957806 C25.4511111,45.4284353 25.9271442,44.4366871 26.4096394,43.4488789 C26.6493665,42.9578981 27.0226413,42.7396703 27.5717836,42.7414496 C30.8231774,42.750982 34.0745712,42.7500923 37.3260916,42.7429748 C37.9033626,42.7418309 38.268655,43.0039077 38.5121832,43.5152242 C38.9485575,44.4308405 39.4295322,45.3257398 39.8466472,46.2497446 C40.0383528,46.6747614 40.2782066,46.8270252 40.7524659,46.8258813 C47.7409162,46.8093585 54.7293665,46.8146966 61.7179435,46.8127902 C61.8518713,46.8126631 61.9859259,46.8027494 62.1382261,46.7915647 C62.2551754,46.7830492 62.3317057,46.6638309 62.2914133,46.5533825 C62.2488402,46.4365791 62.2128558,46.3379508 62.1739571,46.2403393 C61.2602827,43.9430372 60.3334308,41.650946 59.4410429,39.3452554 C59.2412281,38.8291091 59.0011209,38.6185072 58.4005361,38.6201595 C48.9418324,38.6451978 39.4830019,38.637699 30.0241715,38.6378261 C22.1489084,38.6379532 14.2735185,38.6435456 6.39825536,38.626006 C5.89637427,38.6248621 5.65411306,38.7673393 5.4802729,39.2424329 C5.04478558,40.4328357 4.54885965,41.6007422 4.07992203,42.7789436 C3.58247563,44.0287014 3.08769006,45.2793489 2.57846004,46.5638046 L2.57846004,46.5638046 Z M64.8753216,50.3111715 C64.8753216,50.3383705 64.8691131,50.3650612 64.8572027,50.389464 C64.782193,50.5429988 64.7060429,50.6960252 64.6331871,50.8504496 C64.0295614,52.1303297 63.0631774,52.8715671 61.613538,52.8716942 C42.1662476,52.8733465 22.7190838,52.8734736 3.27166667,52.8713129 C1.42961988,52.8711859 0.0827387914,51.4620468 0.00734892788,49.6187398 C-0.0476413255,48.2775983 0.208304094,47.0527518 0.733752437,45.8181187 C1.8355848,43.2287446 2.84150097,40.5979365 3.86883041,37.9771691 C4.00149123,37.6388333 4.07016569,37.2786367 4.0704191,36.9151355 C4.07903509,26.4206271 4.07903509,15.9261187 4.0747271,5.43161031 C4.07346004,2.35646643 6.37063353,0.0393369305 9.42208577,0.0399724221 C24.7731092,0.0431498801 40.1238791,0.0412434053 55.4747758,0.0440395683 C58.5119103,0.04467506 60.7980604,2.34248561 60.7985673,5.3867446 C60.8005945,15.881253 60.7984405,26.3757614 60.8104776,36.8702698 C60.8108577,37.2569029 60.8833333,37.6401043 61.02423,37.9999197 C62.1661014,40.9133945 63.3268519,43.8192434 64.4900097,46.7242026 C64.5831384,46.9566655 64.7273294,47.1685384 64.8522612,47.3881643 C64.8674659,47.414982 64.8753216,47.4453585 64.8753216,47.4762434 L64.8753216,50.3111715 Z" id="Fill-3" fill="#6A6A6A" mask="url(#mask-2)"></path>
                    </g>
                    <path d="M11.1239176,32.9951311 L54.7901358,32.9951311 C54.886466,32.9951311 54.9644059,32.9170274 54.9644059,32.8206493 L54.9644059,7.1890928 C54.9644059,7.09271475 54.886466,7.01473614 54.7901358,7.01473614 L11.1239176,7.01473614 C11.0275875,7.01473614 10.9495225,7.09271475 10.9495225,7.1890928 L10.9495225,32.8206493 C10.9495225,32.9170274 11.0275875,32.9951311 11.1239176,32.9951311 L11.1239176,32.9951311 Z M32.96397,34.9979172 C25.4385817,34.9979172 17.9131933,34.9985431 10.387805,34.9972914 C9.24297714,34.9970411 8.96361963,34.7092837 8.96361963,33.5473649 C8.96336943,24.5166158 8.96324432,15.4857415 8.96386984,6.45499241 C8.96399495,5.27054364 9.23897381,5.00093541 10.4476047,5.00081025 C25.5191487,4.99993408 40.5908178,4.99993408 55.6623618,5.00005925 C56.6048963,5.00005925 56.9615681,5.33963544 56.9616932,6.26448929 C56.9640702,15.4411823 56.9639451,24.6180005 56.9615681,33.7948187 C56.961443,34.6349349 56.5856302,34.9986682 55.7280415,34.9989186 C48.1399759,35.0004206 40.5520355,34.9999199 32.96397,34.9999199 L32.96397,34.9979172 Z" id="Fill-6" fill="#6A6A6A"></path>
                    <g id="Group-24" transform="translate(20.963415, 7.000000)" fill="#6A6A6A">
                        <path d="M7.13374468,6.45117447 C7.10080851,6.68479149 6.85442553,6.90602553 6.64812766,6.99270638 C6.44668085,7.07721702 6.0773617,7.06483404 5.93246809,6.93142979 C5.0993617,6.16355745 4.29817021,5.35942979 3.51459574,4.54049362 C3.23948936,4.25274894 3.30919149,3.8982383 3.58378723,3.62211064 C3.8586383,3.34598298 4.21391489,3.27385532 4.50153191,3.5483234 C5.32161702,4.33074894 6.11348936,5.14291915 6.90459574,5.9549617 C7.00493617,6.05785532 7.16757447,6.21091915 7.13374468,6.45117447" id="Fill-8"></path>
                        <path d="M7.16302979,17.6722596 C6.98200851,17.935366 6.88268936,18.1334936 6.73524255,18.2846426 C6.06030638,18.9763021 5.37605106,19.6590255 4.68681702,20.3365149 C4.2785617,20.7377489 3.91907234,20.7606 3.58613617,20.4321319 C3.25230638,20.1025149 3.27145532,19.7280894 3.66502979,19.3295362 C4.37698723,18.6086426 5.09443404,17.892983 5.81685957,17.1826851 C6.04332766,16.9599191 6.33758298,16.8271532 6.61702979,17.0333234 C6.83341277,17.1930255 6.9785617,17.4494936 7.16302979,17.6722596" id="Fill-10"></path>
                        <path d="M16.8196596,6.42076596 C16.961234,6.17642553 17.0304255,5.97740426 17.1635745,5.84042553 C17.88,5.10331915 18.6068936,4.37629787 19.3410638,3.65693617 C19.6866383,3.31825532 20.0631064,3.31161702 20.3793191,3.60382979 C20.6892766,3.89017021 20.7100851,4.29331915 20.3779149,4.63659574 C19.6415745,5.39757447 18.9,6.15548936 18.120383,6.87089362 C17.9568511,7.02102128 17.5866383,7.07948936 17.3733191,7.00455319 C17.154383,6.92770213 17.0110213,6.63561702 16.8196596,6.42076596" id="Fill-12"></path>
                        <path d="M20.6783745,19.9822213 C20.5175234,20.1771574 20.3922894,20.4652851 20.1903319,20.5370298 C19.9683319,20.6157957 19.5875234,20.5911574 19.4288426,20.4451149 C18.6285447,19.7097957 17.8694809,18.9286468 17.1148851,18.1452 C16.828034,17.8473702 16.8318638,17.4993702 17.1213957,17.1849447 C17.4031404,16.8789447 17.7936511,16.8462638 18.1150979,17.1546894 C18.8885872,17.8969021 19.6442043,18.6582638 20.3925447,19.4262638 C20.5140766,19.5509872 20.5614383,19.747966 20.6783745,19.9822213" id="Fill-14"></path>
                        <path d="M12.6939064,2.4522766 C12.6939064,2.96687234 12.7022043,3.48159574 12.6913532,3.99593617 C12.6819064,4.45078723 12.3747574,4.76968085 11.9790128,4.76202128 C11.5982043,4.75461702 11.2828851,4.41121277 11.2808426,3.97385106 C11.2757362,2.94465957 11.2762468,1.91546809 11.2848,0.886276596 C11.2885021,0.442021277 11.6067574,0.112276596 11.9952255,0.119680851 C12.3769277,0.126702128 12.6875234,0.465510638 12.6959489,0.908489362 C12.7056511,1.42295745 12.6981191,1.93768085 12.6981191,2.4522766 L12.6939064,2.4522766 Z" id="Fill-16"></path>
                        <path d="M2.40372766,12.7334298 C1.90483404,12.7334298 1.40568511,12.7387915 0.90666383,12.7318979 C0.433174468,12.7252596 0.0819829787,12.4133872 0.0845361702,12.0168766 C0.0870893617,11.6119404 0.42347234,11.3211319 0.911642553,11.3184511 C1.90955745,11.3129617 2.9076,11.3118128 3.90564255,11.3151319 C4.37504681,11.3167915 4.72917447,11.6310894 4.7268766,12.0274723 C4.72457872,12.4401957 4.39891915,12.7219404 3.90079149,12.7281957 C3.40177021,12.7345787 2.90274894,12.7296 2.40372766,12.7296 L2.40372766,12.7334298 Z" id="Fill-18"></path>
                        <path d="M21.5254851,12.729434 C21.0126766,12.729434 20.4998681,12.7377319 19.9873149,12.7267532 C19.5818681,12.7180723 19.2588894,12.4035191 19.2496979,12.0354766 C19.2403787,11.6639872 19.5519957,11.3282426 19.9639532,11.3231362 C21.0359106,11.3097319 22.1081234,11.3096043 23.1800809,11.3221149 C23.5751872,11.326583 23.9067191,11.6803277 23.9005915,12.0361149 C23.8947191,12.394583 23.5620383,12.7188383 23.1568468,12.7285404 C22.6132723,12.7413064 22.0693149,12.7317319 21.5254851,12.7317319 L21.5254851,12.729434 Z" id="Fill-20"></path>
                        <path d="M12.6972766,21.6333191 C12.6972766,22.1305532 12.7026383,22.6277872 12.6957447,23.1248936 C12.6893617,23.5911064 12.3642128,23.9491915 11.9748511,23.9350213 C11.5974894,23.9214894 11.286766,23.5821702 11.2834468,23.1422553 C11.2755319,22.1168936 11.2762979,21.0914043 11.2851064,20.0660426 C11.2890638,19.6104255 11.5881702,19.2898723 11.9800851,19.284766 C12.3802979,19.2796596 12.6883404,19.6231915 12.6937021,20.0951489 C12.6995745,20.6078298 12.6949787,21.1205106 12.6949787,21.6333191 L12.6972766,21.6333191 Z" id="Fill-22"></path>
                    </g>
                </g>
            </g>
        </g>
    </g>
</svg>