<?xml version="1.0" encoding="UTF-8"?>
<svg width="41px" height="60px" viewBox="0 0 41 60" version="1.1" xmlns="http://www.w3.org/2000/svg" xmlns:xlink="http://www.w3.org/1999/xlink">
    <!-- Generator: Sketch 53.2 (72643) - https://sketchapp.com -->
    <title>Group 17</title>
    <desc>Created with Sketch.</desc>
    <defs>
        <polygon id="path-1" points="0.590978239 0.624 1.68201541 0.624 1.68201541 3.36819743 0.590978239 3.36819743"></polygon>
        <polygon id="path-3" points="0.230554776 0.404078745 3 0.404078745 3 1.50590483 0.230554776 1.50590483"></polygon>
    </defs>
    <g id="Page-2" stroke="none" stroke-width="1" fill="none" fill-rule="evenodd">
        <g id="Jobs" transform="translate(-656.000000, -723.000000)">
            <g id="Group-17" transform="translate(657.000000, 723.000000)">
                <path d="M26.9224371,11.4055506 C28.1810598,9.899 28.9179,8.637 29.7929,7.193 C30.6619,5.757 32.2319,5.292 33.5489,6.07 C34.8839,6.859 35.1869,8.402 34.2909,9.899 C33.2839,11.58 32.2909,13.271 31.2509,14.933 C29.1059,18.367 25.9819,20.312 21.9969,20.891 C21.5959,20.95 21.4199,21.064 21.3329,21.493 C20.4739,25.722 19.5919,29.946 18.6939,34.167 C18.5929,34.638 18.6879,34.935 19.0429,35.263 C20.1579,36.288 21.2139,37.377 22.3289,38.403 C24.2509,40.172 25.4909,42.324 26.0949,44.86 C26.8429,47.996 27.6249,51.124 28.3679,54.261 C28.9369,56.663 27.1419,58.67 24.7669,58.318 C23.4779,58.127 22.5119,57.132 22.1529,55.603 C21.4479,52.61 20.7229,49.621 20.0629,46.618 C19.7429,45.161 19.0879,43.955 18.0129,42.91 C16.7899,41.72 15.6649,40.427 14.4969,39.179 C14.4049,39.239 14.3129,39.3 14.2209,39.361 C14.0349,40.423 13.9109,41.502 13.6449,42.544 C13.3329,43.764 13.0069,45.001 12.4949,46.145 C10.9429,49.607 9.3069,53.032 7.6869,56.462 C6.9899,57.938 5.4349,58.663 3.9139,58.271 C2.4789,57.901 1.4209,56.456 1.5799,54.961 C1.6349,54.434 1.8549,53.908 2.0809,53.418 C3.5139,50.31 4.9349,47.197 6.4309,44.119 C7.2529,42.428 7.5349,40.626 7.7689,38.807 C8.4149,33.786 9.0319,28.762 9.6589,23.739 C9.6699,23.646 9.6599,23.551 9.6599,23.457 C9.5959,23.408 9.5319,23.358 9.4679,23.309 C8.8479,24.02 8.1229,24.666 7.6309,25.457 C6.6649,27.015 5.8399,28.661 4.9319,30.256 C4.2499,31.452 2.9479,31.948 1.7519,31.511 C0.2879,30.976 -0.4451,29.312 0.2869,27.907 C1.2719,26.016 2.3129,24.15 3.4279,22.333 C4.4159,20.726 4.8029,20.397 6.8049,18.932 C8.3469,18.035 10.1069,16.864 11.6849,16.029 C12.7679,15.655 14.6327721,15.875891 15.6788722,16.029 C20.0629,16.6706539 25.247633,13.4102637 26.9224371,11.4055506 Z" id="Stroke-1" stroke="#575757" stroke-width="2" stroke-linecap="round" stroke-linejoin="round"></path>
                <path d="M17.8580417,1.00009178 C21.0860417,0.982091778 23.7410417,3.61409178 23.7610417,6.85409178 C23.7820417,10.0500918 21.0820417,12.7650918 17.8880417,12.7570918 C14.6800417,12.7500918 12.0110417,10.1210918 12.0000417,6.95809178 C11.9880417,3.64009178 14.5660417,1.01909178 17.8580417,1.00009178 Z" id="Stroke-3" stroke="#575757" stroke-width="2" stroke-linecap="round" stroke-linejoin="round"></path>
                <g id="Group-7" transform="translate(31.000000, 0.376300)">
                    <mask id="mask-2" fill="white">
                        <use xlink:href="#path-1"></use>
                    </mask>
                    <g id="Clip-6"></g>
                    <path d="M1.0434,3.3086 C0.8834,3.2076 0.8534,3.0696 0.8354,2.9466 C0.7484,2.3536 0.6704,1.7596 0.5974,1.1646 C0.5594,0.8566 0.6914,0.6706 0.9574,0.6296 C1.2184,0.5906 1.4034,0.7366 1.4484,1.0456 C1.5354,1.6476 1.6264,2.2496 1.6794,2.8556 C1.6914,3.0016 1.6644,3.2056 1.5504,3.2896 C1.4344,3.3746 1.1974,3.4046 1.0434,3.3086" id="Fill-5" fill="#575757" mask="url(#mask-2)"></path>
                </g>
                <g id="Group-10" transform="translate(37.000000, 6.376300)">
                    <mask id="mask-4" fill="white">
                        <use xlink:href="#path-3"></use>
                    </mask>
                    <g id="Clip-9"></g>
                    <path d="M2.893,0.544 C2.997,0.646 3.022,0.858 2.983,0.981 C2.94,1.116 2.767,1.216 2.64,1.238 C1.987,1.352 1.328,1.431 0.669,1.503 C0.435,1.528 0.281,1.39 0.239,1.152 C0.197,0.917 0.313,0.71 0.557,0.671 C1.211,0.568 1.87,0.485 2.528,0.406 C2.622,0.394 2.786,0.438 2.893,0.544" id="Fill-8" fill="#575757" mask="url(#mask-4)"></path>
                </g>
                <path d="M28.061,4.9159 C27.816,4.7279 27.568,4.5429 27.326,4.3509 C27.125,4.1919 27.081,3.9399 27.208,3.7529 C27.337,3.5659 27.629,3.5199 27.836,3.6749 C28.345,4.0579 28.851,4.4459 29.352,4.8399 C29.547,4.9939 29.572,5.2689 29.429,5.4419 C29.29,5.6119 29.016,5.6419 28.82,5.4979 C28.563,5.3089 28.313,5.1109 28.06,4.9169 C28.061,4.9169 28.061,4.9159 28.061,4.9159" id="Fill-11" fill="#575757"></path>
                <path d="M36.727,3.7894 C36.54,4.0344 36.356,4.2814 36.164,4.5224 C36.002,4.7244 35.72,4.7614 35.543,4.6154 C35.369,4.4714 35.338,4.2144 35.492,4.0104 C35.867,3.5094 36.248,3.0124 36.632,2.5194 C36.792,2.3134 37.073,2.2684 37.252,2.4044 C37.432,2.5394 37.461,2.8234 37.306,3.0334 C37.118,3.2894 36.921,3.5384 36.728,3.7904 C36.728,3.7894 36.727,3.7894 36.727,3.7894" id="Fill-13" fill="#575757"></path>
                <path d="M37.7251,11.2474 C37.9701,11.4344 38.2171,11.6194 38.4581,11.8104 C38.6681,11.9754 38.7221,12.2444 38.5921,12.4294 C38.4581,12.6194 38.1631,12.6504 37.9431,12.4844 C37.4511,12.1134 36.9611,11.7384 36.4761,11.3594 C36.2611,11.1914 36.2201,10.9284 36.3641,10.7414 C36.5041,10.5594 36.7801,10.5314 36.9901,10.6874 C37.2381,10.8714 37.4801,11.0614 37.7241,11.2484 C37.7251,11.2484 37.7251,11.2474 37.7251,11.2474" id="Fill-15" fill="#575757"></path>
            </g>
        </g>
    </g>
</svg>