<?xml version="1.0" standalone="no"?><!DOCTYPE svg PUBLIC "-//W3C//DTD SVG 1.1//EN" "http://www.w3.org/Graphics/SVG/1.1/DTD/svg11.dtd"><svg width="100%" height="100%" viewBox="0 0 585 217" version="1.1" xmlns="http://www.w3.org/2000/svg" xmlns:xlink="http://www.w3.org/1999/xlink" xml:space="preserve" style="fill-rule:evenodd;clip-rule:evenodd;stroke-linejoin:round;stroke-miterlimit:1.41421;"><g><rect x="228.535" y="0.813" width="4.257" height="216.187" style="fill:#403f41;"/><path d="M65.452,89.525l-32.73,-18.897l-32.517,18.897l32.73,18.896l32.517,-18.896Z" style="fill:#0877b5;fill-rule:nonzero;"/><path d="M195.807,89.501l-32.729,-18.896l-32.517,18.896l32.73,18.896l32.516,-18.896Z" style="fill:#0877b5;fill-rule:nonzero;"/><path d="M65.564,127.278l32.729,18.897l32.517,-18.897l-32.73,-18.896l-32.516,18.896Z" style="fill:#0877b5;fill-rule:nonzero;"/><path d="M65.341,202.485l32.517,-18.896l0.106,-37.609l-32.516,18.897l-0.107,37.608Z" style="fill:#a9bfd8;fill-rule:nonzero;"/><path d="M130.59,89.482l32.517,-18.897l0.107,-37.608l-32.517,18.896l-0.107,37.609Z" style="fill:#a9bfd8;fill-rule:nonzero;"/><path d="M98.18,70.781l-32.518,18.897l-0.106,37.608l32.517,-18.896l0.107,-37.609Z" style="fill:#a9bfd8;fill-rule:nonzero;"/><path d="M97.857,183.594l32.731,18.896l0.107,-37.608l-32.731,-18.897l-0.107,37.609Z" style="fill:#004261;fill-rule:nonzero;"/><path d="M32.615,70.6l32.73,18.897l0.106,-37.61l-32.729,-18.896l-0.107,37.609Z" style="fill:#004261;fill-rule:nonzero;"/><path d="M130.91,89.676l-32.73,-18.896l-0.107,37.608l32.731,18.896l0.106,-37.608Z" style="fill:#004261;fill-rule:nonzero;"/><path d="M130.69,51.882l32.517,-18.896l-32.72,-18.892l-32.518,18.898l-32.73,-18.898l-32.517,18.898l32.73,18.896l-32.517,18.897l32.721,18.891l32.516,-18.896l32.729,18.896l32.519,-18.897l-32.73,-18.897Z" style="fill:#0982c6;fill-rule:nonzero;"/><path d="M65.556,127.278l0.106,-37.609l-32.72,-18.89l-0.106,37.608l-32.73,-18.896l-0.106,37.609l32.729,18.896l-0.107,37.608l32.721,18.892l0.107,-37.608l32.73,18.896l0.106,-37.609l-32.73,-18.897Z" style="fill:#004b6d;fill-rule:nonzero;"/><path d="M163.311,108.385l0.107,-37.608l-32.508,18.891l-0.106,37.608l-32.518,18.897l-0.106,37.609l32.517,-18.896l-0.107,37.608l32.508,-18.891l0.106,-37.609l32.518,-18.896l0.106,-37.609l-32.517,18.896Z" style="fill:#bad1ed;fill-rule:nonzero;"/><path d="M273.692,117.735l-5.435,7.828c4.401,3.753 11.128,7.374 21.351,7.374c11.189,0 18.825,-4.85 18.825,-14.684c0,-12.68 -12.228,-13.649 -19.927,-15.267c-4.268,-0.907 -9.38,-1.683 -9.38,-5.045c0,-3.753 5.176,-4.659 8.151,-4.659c4.593,0 9.317,1.94 13.391,4.852l5.694,-7.762c-5.176,-3.818 -10.414,-6.34 -18.697,-6.34c-8.344,0 -18.76,3.04 -18.76,14.297c0,11.32 12.808,13.52 18.76,14.489c5.499,0.971 10.545,1.943 10.545,5.694c0,2.653 -3.105,5.24 -8.732,5.24c-5.435,0 -12.357,-3.171 -15.786,-6.017ZM347.57,93.606l0,-8.862l-37.782,0l0,8.862l13.782,0l0,38.426l10.285,0l0,-38.426l13.715,0ZM340.841,132.032l11.257,0l3.624,-7.245l22.06,0l3.753,7.245l11.189,0l-25.941,-48.778l-25.942,48.778ZM360.766,116.055l6.017,-12.357l6.081,12.357l-12.098,0ZM405.664,132.032l0,-14.749l6.988,0c3.882,5.176 7.438,9.899 11.321,14.749l12.227,0c-3.818,-5.047 -8.153,-10.737 -12.227,-15.848c5.887,-2.525 9.638,-8.153 9.638,-15.01c0,-9.703 -6.922,-16.43 -17.077,-16.43l-21.027,0l0,47.288l10.157,0ZM405.664,108.421l0,-14.815l10.87,0c6.014,0 6.921,5.11 6.921,7.568c0,4.917 -3.753,7.247 -6.921,7.247l-10.87,0ZM475.403,93.606l0,-8.862l-37.781,0l0,8.862l13.78,0l0,38.426l10.287,0l0,-38.426l13.714,0ZM501.464,132.873c12.809,0 21.091,-7.892 21.091,-19.989l0,-28.076l-10.224,0l0,28.076c0,8.928 -6.856,11.191 -10.867,11.191c-4.139,0 -10.999,-2.263 -10.999,-11.191l0,-28.076l-10.22,0l0,28.076c0,12.097 8.345,19.989 21.219,19.989ZM547.33,84.744l-19.213,0l0,47.288l10.222,0l0,-13.779l8.926,0c12.681,0 19.149,-7.245 19.149,-16.562c0,-9.379 -7.18,-16.947 -19.084,-16.947ZM548.753,109.391l-10.414,0l0,-15.785l9.379,0c5.499,0 8.411,4.076 8.411,8.085c0,3.882 -2.265,7.7 -7.376,7.7Z" style="fill:#414042;fill-rule:nonzero;"/><path d="M273.692,53.043l-5.435,7.828c4.401,3.752 11.128,7.375 21.351,7.375c11.189,0 18.825,-4.851 18.825,-14.685c0,-12.68 -12.228,-13.649 -19.927,-15.267c-4.268,-0.907 -9.38,-1.683 -9.38,-5.046c0,-3.753 5.176,-4.659 8.151,-4.659c4.593,0 9.317,1.941 13.391,4.853l5.694,-7.763c-5.176,-3.817 -10.414,-6.34 -18.697,-6.34c-8.344,0 -18.76,3.04 -18.76,14.297c0,11.321 12.808,13.521 18.76,14.49c5.499,0.97 10.545,1.943 10.545,5.694c0,2.653 -3.105,5.24 -8.732,5.24c-5.435,0 -12.357,-3.171 -15.786,-6.017ZM374.483,20.116l-10.869,0l-9.315,24.518l-12.421,-25.747l-12.421,25.747l-9.123,-24.518l-10.996,0l18.891,48.972l13.649,-28.078l13.521,28.078l19.084,-48.972ZM390.719,20.051l-10.222,0l0,47.291l10.222,0l0,-47.291ZM404.24,53.043l-5.435,7.828c4.4,3.752 11.128,7.375 21.351,7.375c11.189,0 18.825,-4.851 18.825,-14.685c0,-12.68 -12.227,-13.649 -19.925,-15.267c-4.271,-0.907 -9.382,-1.683 -9.382,-5.046c0,-3.753 5.176,-4.659 8.151,-4.659c4.593,0 9.317,1.941 13.391,4.853l5.694,-7.763c-5.174,-3.817 -10.415,-6.34 -18.697,-6.34c-8.345,0 -18.761,3.04 -18.761,14.297c0,11.321 12.809,13.521 18.761,14.49c5.499,0.97 10.545,1.943 10.545,5.694c0,2.653 -3.103,5.24 -8.732,5.24c-5.435,0 -12.357,-3.171 -15.786,-6.017ZM449.977,53.043l-5.435,7.828c4.401,3.752 11.128,7.375 21.35,7.375c11.19,0 18.826,-4.851 18.826,-14.685c0,-12.68 -12.227,-13.649 -19.928,-15.267c-4.267,-0.907 -9.379,-1.683 -9.379,-5.046c0,-3.753 5.176,-4.659 8.151,-4.659c4.594,0 9.317,1.941 13.391,4.853l5.693,-7.763c-5.176,-3.817 -10.414,-6.34 -18.695,-6.34c-8.345,0 -18.762,3.04 -18.762,14.297c0,11.321 12.809,13.521 18.762,14.49c5.499,0.97 10.544,1.943 10.544,5.694c0,2.653 -3.106,5.24 -8.732,5.24c-5.435,0 -12.356,-3.171 -15.786,-6.017Z" style="fill:#414042;fill-rule:nonzero;"/><path d="M281.032,168.595l22.685,0l0,8.905l-22.685,0l0,19.241l-10.336,0l0,-47.516l36.011,0l0,8.905l-25.675,0l0,10.465Z" style="fill:#414042;fill-rule:nonzero;"/><path d="M334.455,180.686l-6.11,-12.416l-6.045,12.416l12.155,0ZM328.345,147.729l26.065,49.012l-11.245,0l-3.769,-7.28l-22.166,0l-3.641,7.28l-11.31,0l26.066,-49.012Z" style="fill:#414042;fill-rule:nonzero;"/><path d="M377.835,197.651c-14.105,0 -25.61,-11.05 -25.61,-24.636c0,-13.521 11.505,-24.571 25.61,-24.571c9.556,0 18.006,5.265 22.557,13l-9.556,3.705c-2.86,-4.094 -7.735,-7.41 -13.001,-7.41c-8.45,0 -15.275,7.151 -15.275,15.276c0,8.126 6.825,15.34 15.275,15.34c5.266,0 10.141,-3.379 13.001,-7.54l9.556,3.705c-4.551,7.866 -13.001,13.131 -22.557,13.131Z" style="fill:#414042;fill-rule:nonzero;"/><path d="M427.332,158.13l0,38.611l-10.335,0l0,-38.611l-13.845,0l0,-8.905l37.961,0l0,8.905l-13.781,0Z" style="fill:#414042;fill-rule:nonzero;"/><path d="M452.043,172.95c0,8.191 6.891,15.405 15.341,15.405c8.516,0 15.341,-7.214 15.341,-15.405c0,-8.125 -6.825,-15.275 -15.341,-15.275c-8.45,0 -15.341,7.15 -15.341,15.275ZM441.838,172.95c0,-13.52 11.441,-24.636 25.546,-24.636c14.171,0 25.676,11.116 25.676,24.636c0,13.651 -11.505,24.701 -25.676,24.701c-14.105,0 -25.546,-11.05 -25.546,-24.701Z" style="fill:#414042;fill-rule:nonzero;"/><path d="M519.643,173.015c3.185,0 6.956,-2.34 6.956,-7.281c0,-2.469 -0.91,-7.604 -6.956,-7.604l-10.92,0l0,14.885l10.92,0ZM498.518,196.741l0,-47.516l21.125,0c10.206,0 17.161,6.759 17.161,16.509c0,6.891 -3.769,12.546 -9.685,15.081c4.095,5.135 8.451,10.856 12.286,15.926l-12.286,0c-3.9,-4.875 -7.476,-9.62 -11.375,-14.82l-7.021,0l0,14.82l-10.205,0Z" style="fill:#414042;fill-rule:nonzero;"/><path d="M565.422,178.735l0,18.006l-10.27,0l0,-18.006l-18.721,-29.446l12.025,0l11.83,19.176l11.961,-19.176l12.026,0l-18.851,29.446Z" style="fill:#414042;fill-rule:nonzero;"/></g></svg>