<?xml version="1.0" standalone="no"?><!DOCTYPE svg PUBLIC "-//W3C//DTD SVG 1.1//EN" "http://www.w3.org/Graphics/SVG/1.1/DTD/svg11.dtd"><svg width="100%" height="100%" viewBox="0 0 842 596" version="1.1" xmlns="http://www.w3.org/2000/svg" xmlns:xlink="http://www.w3.org/1999/xlink" xml:space="preserve" style="fill-rule:evenodd;clip-rule:evenodd;stroke-linejoin:round;stroke-miterlimit:1.41421;"><g><rect x="327.729" y="199.523" width="4.258" height="216.187" style="fill:#403f41;"/><path d="M164.647,288.235l-32.73,-18.897l-32.517,18.897l32.731,18.896l32.516,-18.896Z" style="fill:#0877b5;fill-rule:nonzero;"/><path d="M295.002,288.211l-32.729,-18.896l-32.517,18.896l32.73,18.897l32.516,-18.897Z" style="fill:#0877b5;fill-rule:nonzero;"/><path d="M164.759,325.989l32.73,18.896l32.516,-18.896l-32.729,-18.897l-32.517,18.897Z" style="fill:#0877b5;fill-rule:nonzero;"/><path d="M164.536,401.196l32.517,-18.897l0.107,-37.608l-32.517,18.896l-0.107,37.609Z" style="fill:#a9bfd8;fill-rule:nonzero;"/><path d="M229.785,288.192l32.517,-18.897l0.107,-37.608l-32.517,18.896l-0.107,37.609Z" style="fill:#a9bfd8;fill-rule:nonzero;"/><path d="M197.375,269.491l-32.517,18.897l-0.107,37.608l32.518,-18.896l0.106,-37.609Z" style="fill:#a9bfd8;fill-rule:nonzero;"/><path d="M197.053,382.304l32.73,18.897l0.107,-37.609l-32.73,-18.896l-0.107,37.608Z" style="fill:#004261;fill-rule:nonzero;"/><path d="M131.811,269.31l32.729,18.896l0.106,-37.609l-32.729,-18.896l-0.106,37.609Z" style="fill:#004261;fill-rule:nonzero;"/><path d="M230.105,288.386l-32.73,-18.896l-0.107,37.608l32.731,18.897l0.106,-37.609Z" style="fill:#004261;fill-rule:nonzero;"/><path d="M229.885,250.592l32.517,-18.896l-32.72,-18.892l-32.517,18.898l-32.73,-18.898l-32.518,18.898l32.73,18.896l-32.517,18.897l32.721,18.891l32.517,-18.896l32.729,18.896l32.518,-18.897l-32.73,-18.897Z" style="fill:#0982c6;fill-rule:nonzero;"/><path d="M164.751,325.989l0.107,-37.61l-32.72,-18.89l-0.107,37.608l-32.73,-18.896l-0.107,37.609l32.73,18.896l-0.106,37.609l32.72,18.891l0.107,-37.608l32.73,18.897l0.106,-37.61l-32.73,-18.896Z" style="fill:#004b6d;fill-rule:nonzero;"/><path d="M262.506,307.095l0.107,-37.608l-32.508,18.891l-0.106,37.609l-32.518,18.896l-0.106,37.61l32.517,-18.897l-0.107,37.608l32.508,-18.891l0.106,-37.609l32.518,-18.896l0.106,-37.609l-32.517,18.896Z" style="fill:#bad1ed;fill-rule:nonzero;"/><path d="M372.887,316.446l-5.435,7.828c4.401,3.753 11.128,7.374 21.351,7.374c11.189,0 18.825,-4.851 18.825,-14.685c0,-12.679 -12.228,-13.649 -19.927,-15.266c-4.268,-0.908 -9.38,-1.684 -9.38,-5.046c0,-3.753 5.176,-4.659 8.151,-4.659c4.593,0 9.317,1.94 13.391,4.852l5.694,-7.763c-5.176,-3.817 -10.414,-6.339 -18.697,-6.339c-8.344,0 -18.76,3.04 -18.76,14.296c0,11.322 12.808,13.521 18.76,14.491c5.499,0.97 10.545,1.942 10.545,5.693c0,2.653 -3.105,5.24 -8.732,5.24c-5.435,0 -12.357,-3.171 -15.786,-6.016ZM446.765,292.316l0,-8.863l-37.782,0l0,8.863l13.782,0l0,38.427l10.285,0l0,-38.427l13.715,0ZM440.036,330.743l11.257,0l3.624,-7.246l22.06,0l3.752,7.246l11.19,0l-25.941,-48.779l-25.942,48.779ZM459.961,314.765l6.017,-12.356l6.081,12.356l-12.098,0ZM504.859,330.743l0,-14.749l6.988,0c3.881,5.175 7.437,9.898 11.321,14.749l12.226,0c-3.817,-5.047 -8.152,-10.738 -12.226,-15.849c5.887,-2.524 9.638,-8.152 9.638,-15.01c0,-9.703 -6.922,-16.431 -17.078,-16.431l-21.026,0l0,47.29l10.157,0ZM504.859,307.131l0,-14.815l10.869,0c6.014,0 6.922,5.11 6.922,7.568c0,4.917 -3.754,7.247 -6.922,7.247l-10.869,0ZM574.598,292.316l0,-8.863l-37.781,0l0,8.863l13.78,0l0,38.427l10.287,0l0,-38.427l13.714,0ZM600.659,331.583c12.809,0 21.091,-7.891 21.091,-19.989l0,-28.076l-10.223,0l0,28.076c0,8.929 -6.857,11.192 -10.868,11.192c-4.14,0 -10.999,-2.263 -10.999,-11.192l0,-28.076l-10.22,0l0,28.076c0,12.098 8.345,19.989 21.219,19.989ZM646.525,283.453l-19.213,0l0,47.29l10.222,0l0,-13.78l8.926,0c12.681,0 19.149,-7.245 19.149,-16.561c0,-9.38 -7.18,-16.949 -19.084,-16.949ZM647.948,308.101l-10.414,0l0,-15.785l9.379,0c5.499,0 8.411,4.076 8.411,8.086c0,3.882 -2.265,7.699 -7.376,7.699Z" style="fill:#414042;fill-rule:nonzero;"/><path d="M372.887,251.753l-5.435,7.827c4.401,3.753 11.128,7.375 21.351,7.375c11.189,0 18.825,-4.85 18.825,-14.684c0,-12.68 -12.228,-13.65 -19.927,-15.267c-4.268,-0.907 -9.38,-1.683 -9.38,-5.046c0,-3.754 5.176,-4.659 8.151,-4.659c4.593,0 9.317,1.941 13.391,4.853l5.694,-7.763c-5.176,-3.817 -10.414,-6.34 -18.697,-6.34c-8.344,0 -18.76,3.04 -18.76,14.297c0,11.321 12.808,13.521 18.76,14.49c5.499,0.97 10.545,1.943 10.545,5.694c0,2.653 -3.105,5.24 -8.732,5.24c-5.435,0 -12.357,-3.171 -15.786,-6.017ZM473.678,218.826l-10.869,0l-9.315,24.518l-12.421,-25.747l-12.421,25.747l-9.123,-24.518l-10.996,0l18.891,48.972l13.649,-28.078l13.521,28.078l19.084,-48.972ZM489.914,218.761l-10.222,0l0,47.291l10.222,0l0,-47.291ZM503.435,251.753l-5.435,7.827c4.4,3.753 11.128,7.375 21.351,7.375c11.189,0 18.825,-4.85 18.825,-14.684c0,-12.68 -12.227,-13.65 -19.926,-15.267c-4.271,-0.907 -9.381,-1.683 -9.381,-5.046c0,-3.754 5.175,-4.659 8.149,-4.659c4.594,0 9.319,1.941 13.393,4.853l5.693,-7.763c-5.173,-3.817 -10.414,-6.34 -18.696,-6.34c-8.345,0 -18.761,3.04 -18.761,14.297c0,11.321 12.809,13.521 18.761,14.49c5.498,0.97 10.545,1.943 10.545,5.694c0,2.653 -3.103,5.24 -8.732,5.24c-5.435,0 -12.357,-3.171 -15.786,-6.017ZM549.172,251.753l-5.435,7.827c4.401,3.753 11.128,7.375 21.35,7.375c11.19,0 18.826,-4.85 18.826,-14.684c0,-12.68 -12.228,-13.65 -19.928,-15.267c-4.267,-0.907 -9.379,-1.683 -9.379,-5.046c0,-3.754 5.176,-4.659 8.151,-4.659c4.594,0 9.317,1.941 13.391,4.853l5.693,-7.763c-5.176,-3.817 -10.414,-6.34 -18.696,-6.34c-8.344,0 -18.761,3.04 -18.761,14.297c0,11.321 12.809,13.521 18.761,14.49c5.499,0.97 10.545,1.943 10.545,5.694c0,2.653 -3.106,5.24 -8.732,5.24c-5.435,0 -12.356,-3.171 -15.786,-6.017Z" style="fill:#414042;fill-rule:nonzero;"/><path d="M380.227,367.305l22.685,0l0,8.905l-22.685,0l0,19.242l-10.336,0l0,-47.517l36.011,0l0,8.905l-25.675,0l0,10.465Z" style="fill:#414042;fill-rule:nonzero;"/><path d="M433.65,379.396l-6.11,-12.416l-6.045,12.416l12.155,0ZM427.54,346.44l26.065,49.012l-11.245,0l-3.769,-7.281l-22.166,0l-3.641,7.281l-11.31,0l26.066,-49.012Z" style="fill:#414042;fill-rule:nonzero;"/><path d="M477.03,396.362c-14.105,0 -25.61,-11.051 -25.61,-24.637c0,-13.521 11.505,-24.57 25.61,-24.57c9.556,0 18.006,5.264 22.557,13l-9.556,3.705c-2.86,-4.095 -7.735,-7.41 -13.001,-7.41c-8.45,0 -15.275,7.15 -15.275,15.275c0,8.126 6.825,15.341 15.275,15.341c5.266,0 10.141,-3.38 13.001,-7.54l9.556,3.705c-4.551,7.865 -13.001,13.131 -22.557,13.131Z" style="fill:#414042;fill-rule:nonzero;"/><path d="M526.527,356.84l0,38.612l-10.335,0l0,-38.612l-13.845,0l0,-8.905l37.961,0l0,8.905l-13.781,0Z" style="fill:#414042;fill-rule:nonzero;"/><path d="M551.238,371.661c0,8.19 6.891,15.405 15.341,15.405c8.516,0 15.341,-7.215 15.341,-15.405c0,-8.125 -6.825,-15.276 -15.341,-15.276c-8.45,0 -15.341,7.151 -15.341,15.276ZM541.033,371.661c0,-13.521 11.441,-24.636 25.546,-24.636c14.171,0 25.676,11.115 25.676,24.636c0,13.65 -11.505,24.701 -25.676,24.701c-14.105,0 -25.546,-11.051 -25.546,-24.701Z" style="fill:#414042;fill-rule:nonzero;"/><path d="M618.839,371.725c3.184,0 6.955,-2.34 6.955,-7.28c0,-2.47 -0.91,-7.605 -6.955,-7.605l-10.921,0l0,14.885l10.921,0ZM597.713,395.452l0,-47.517l21.126,0c10.205,0 17.16,6.76 17.16,16.51c0,6.89 -3.77,12.546 -9.686,15.081c4.096,5.135 8.452,10.855 12.287,15.926l-12.287,0c-3.899,-4.875 -7.474,-9.621 -11.375,-14.821l-7.02,0l0,14.821l-10.205,0Z" style="fill:#414042;fill-rule:nonzero;"/><path d="M664.617,377.446l0,18.006l-10.27,0l0,-18.006l-18.721,-29.447l12.025,0l11.83,19.176l11.961,-19.176l12.026,0l-18.851,29.447Z" style="fill:#414042;fill-rule:nonzero;"/></g></svg>