<?xml version="1.0" standalone="no"?><!DOCTYPE svg PUBLIC "-//W3C//DTD SVG 1.1//EN" "http://www.w3.org/Graphics/SVG/1.1/DTD/svg11.dtd"><svg width="100%" height="100%" viewBox="0 0 567 217" version="1.1" xmlns="http://www.w3.org/2000/svg" xmlns:xlink="http://www.w3.org/1999/xlink" xml:space="preserve" style="fill-rule:evenodd;clip-rule:evenodd;stroke-linejoin:round;stroke-miterlimit:1.41421;"><g><rect x="228.534" y="0.812" width="4.258" height="216.187" style="fill:#403f41;"/><path d="M273.692,117.736l-5.435,7.827c4.401,3.753 11.128,7.375 21.351,7.375c11.189,0 18.825,-4.851 18.825,-14.685c0,-12.679 -12.228,-13.65 -19.927,-15.266c-4.268,-0.907 -9.38,-1.684 -9.38,-5.047c0,-3.753 5.176,-4.658 8.151,-4.658c4.593,0 9.317,1.941 13.391,4.853l5.694,-7.763c-5.176,-3.817 -10.414,-6.34 -18.697,-6.34c-8.344,0 -18.76,3.039 -18.76,14.297c0,11.321 12.808,13.519 18.76,14.49c5.499,0.97 10.545,1.942 10.545,5.693c0,2.654 -3.105,5.24 -8.732,5.24c-5.435,0 -12.357,-3.17 -15.786,-6.016ZM347.57,93.605l0,-8.862l-37.781,0l0,8.862l13.781,0l0,38.427l10.285,0l0,-38.427l13.715,0ZM340.841,132.032l11.257,0l3.624,-7.245l22.06,0l3.752,7.245l11.19,0l-25.941,-48.778l-25.942,48.778ZM360.766,116.054l6.017,-12.356l6.081,12.356l-12.098,0ZM405.664,132.032l0,-14.749l6.988,0c3.882,5.175 7.438,9.899 11.321,14.749l12.227,0c-3.818,-5.046 -8.153,-10.738 -12.227,-15.848c5.887,-2.524 9.638,-8.153 9.638,-15.011c0,-9.701 -6.922,-16.43 -17.077,-16.43l-21.027,0l0,47.289l10.157,0ZM405.664,108.421l0,-14.816l10.87,0c6.014,0 6.921,5.112 6.921,7.568c0,4.917 -3.753,7.248 -6.921,7.248l-10.87,0ZM475.403,93.605l0,-8.862l-37.781,0l0,8.862l13.78,0l0,38.427l10.287,0l0,-38.427l13.714,0ZM501.464,132.873c12.809,0 21.091,-7.892 21.091,-19.99l0,-28.074l-10.224,0l0,28.074c0,8.929 -6.855,11.193 -10.867,11.193c-4.139,0 -10.999,-2.264 -10.999,-11.193l0,-28.074l-10.22,0l0,28.074c0,12.098 8.345,19.99 21.219,19.99ZM547.33,84.743l-19.213,0l0,47.289l10.222,0l0,-13.779l8.927,0c12.68,0 19.148,-7.245 19.148,-16.562c0,-9.379 -7.18,-16.948 -19.084,-16.948ZM548.753,109.391l-10.414,0l0,-15.786l9.379,0c5.499,0 8.411,4.077 8.411,8.086c0,3.883 -2.265,7.7 -7.376,7.7Z" style="fill:#403f41;fill-rule:nonzero;"/><path d="M273.692,53.044l-5.435,7.827c4.401,3.753 11.128,7.374 21.351,7.374c11.189,0 18.825,-4.85 18.825,-14.684c0,-12.679 -12.228,-13.65 -19.927,-15.266c-4.268,-0.908 -9.38,-1.684 -9.38,-5.047c0,-3.753 5.176,-4.658 8.151,-4.658c4.593,0 9.317,1.94 13.391,4.852l5.694,-7.762c-5.176,-3.818 -10.414,-6.34 -18.697,-6.34c-8.344,0 -18.76,3.039 -18.76,14.296c0,11.322 12.808,13.52 18.76,14.491c5.499,0.97 10.545,1.941 10.545,5.692c0,2.655 -3.105,5.241 -8.732,5.241c-5.435,0 -12.357,-3.17 -15.786,-6.016ZM374.483,20.115l-10.869,0l-9.315,24.52l-12.421,-25.748l-12.421,25.748l-9.123,-24.52l-10.996,0l18.891,48.973l13.649,-28.077l13.521,28.077l19.084,-48.973ZM390.719,20.051l-10.222,0l0,47.291l10.222,0l0,-47.291ZM404.24,53.044l-5.434,7.827c4.399,3.753 11.127,7.374 21.35,7.374c11.189,0 18.825,-4.85 18.825,-14.684c0,-12.679 -12.227,-13.65 -19.925,-15.266c-4.271,-0.908 -9.382,-1.684 -9.382,-5.047c0,-3.753 5.176,-4.658 8.152,-4.658c4.593,0 9.316,1.94 13.39,4.852l5.693,-7.762c-5.173,-3.818 -10.414,-6.34 -18.696,-6.34c-8.345,0 -18.761,3.039 -18.761,14.296c0,11.322 12.809,13.52 18.761,14.491c5.499,0.97 10.546,1.941 10.546,5.692c0,2.655 -3.104,5.241 -8.733,5.241c-5.435,0 -12.357,-3.17 -15.786,-6.016ZM449.977,53.044l-5.435,7.827c4.401,3.753 11.128,7.374 21.35,7.374c11.19,0 18.826,-4.85 18.826,-14.684c0,-12.679 -12.227,-13.65 -19.927,-15.266c-4.268,-0.908 -9.38,-1.684 -9.38,-5.047c0,-3.753 5.176,-4.658 8.151,-4.658c4.594,0 9.317,1.94 13.391,4.852l5.694,-7.762c-5.176,-3.818 -10.415,-6.34 -18.696,-6.34c-8.345,0 -18.761,3.039 -18.761,14.296c0,11.322 12.808,13.52 18.761,14.491c5.499,0.97 10.544,1.941 10.544,5.692c0,2.655 -3.106,5.241 -8.732,5.241c-5.435,0 -12.356,-3.17 -15.786,-6.016Z" style="fill:#403f41;fill-rule:nonzero;"/><path d="M318.667,174.12c0,0.845 -0.064,1.755 -0.13,2.73c-1.04,12.155 -12.025,20.801 -24.831,20.801c-14.105,0 -25.61,-11.051 -25.61,-24.636c0,-13.52 11.505,-24.636 25.61,-24.636c8.841,0 16.836,4.486 21.517,11.441l-8.841,5.135c-2.925,-4.031 -7.54,-7.215 -12.676,-7.215c-8.45,0 -15.405,7.15 -15.405,15.275c0,8.125 6.955,15.341 15.405,15.341c6.111,0 12.351,-3.966 13.846,-9.036l-17.745,0l0,-9.035l28.73,0c0.066,1.3 0.13,2.795 0.13,3.835Z" style="fill:#403f41;fill-rule:nonzero;"/><path d="M344.927,173.015c3.185,0 6.955,-2.34 6.955,-7.28c0,-2.47 -0.91,-7.606 -6.955,-7.606l-10.921,0l0,14.886l10.921,0ZM323.801,196.741l0,-47.517l21.126,0c10.205,0 17.16,6.761 17.16,16.511c0,6.89 -3.769,12.545 -9.685,15.08c4.095,5.136 8.451,10.855 12.286,15.926l-12.286,0c-3.9,-4.875 -7.475,-9.62 -11.375,-14.821l-7.021,0l0,14.821l-10.205,0Z" style="fill:#403f41;fill-rule:nonzero;"/><path d="M376.67,172.95c0,8.19 6.891,15.406 15.341,15.406c8.516,0 15.341,-7.216 15.341,-15.406c0,-8.125 -6.825,-15.276 -15.341,-15.276c-8.45,0 -15.341,7.151 -15.341,15.276ZM366.465,172.95c0,-13.521 11.441,-24.636 25.546,-24.636c14.171,0 25.676,11.115 25.676,24.636c0,13.65 -11.505,24.701 -25.676,24.701c-14.105,0 -25.546,-11.051 -25.546,-24.701Z" style="fill:#403f41;fill-rule:nonzero;"/><path d="M421.39,177.5l0,-28.21l10.27,0l0,28.21c0,8.97 6.89,11.246 11.05,11.246c4.031,0 10.921,-2.276 10.921,-11.246l0,-28.21l10.271,0l0,28.21c0,12.156 -8.321,20.086 -21.192,20.086c-12.935,0 -21.32,-7.93 -21.32,-20.086Z" style="fill:#403f41;fill-rule:nonzero;"/><path d="M497.31,166.254c0,-4.029 -2.925,-8.125 -8.45,-8.125l-9.425,0l0,15.861l10.465,0c5.135,0 7.41,-3.835 7.41,-7.736ZM507.646,166.254c0,9.361 -6.5,16.641 -19.241,16.641l-8.97,0l0,13.846l-10.271,0l0,-47.517l19.306,0c11.96,0 19.176,7.606 19.176,17.03Z" style="fill:#403f41;fill-rule:nonzero;"/><path d="M65.452,89.524l-32.73,-18.896l-32.517,18.896l32.73,18.897l32.517,-18.897Z" style="fill:url(#_Linear1);"/><path d="M195.808,89.502l-32.731,-18.897l-32.516,18.897l32.729,18.896l32.518,-18.896Z" style="fill:url(#_Linear2);"/><path d="M65.563,127.279l32.73,18.895l32.518,-18.896l-32.73,-18.897l-32.518,18.898Z" style="fill:url(#_Linear3);"/><path d="M65.341,202.486l32.516,-18.897l0.108,-37.609l-32.518,18.896l-0.106,37.61Z" style="fill:url(#_Linear4);"/><path d="M130.59,89.482l32.517,-18.897l0.107,-37.609l-32.517,18.898l-0.107,37.608Z" style="fill:url(#_Linear5);"/><path d="M98.18,70.781l-32.517,18.897l-0.107,37.608l32.517,-18.897l0.107,-37.608Z" style="fill:url(#_Linear6);"/><path d="M97.857,183.594l32.731,18.897l0.107,-37.609l-32.731,-18.897l-0.107,37.609Z" style="fill:#494c4d;fill-rule:nonzero;"/><path d="M32.615,70.6l32.73,18.896l0.106,-37.608l-32.729,-18.897l-0.107,37.609Z" style="fill:#494c4d;fill-rule:nonzero;"/><path d="M130.909,89.676l-32.729,-18.897l-0.107,37.609l32.729,18.897l0.107,-37.609Z" style="fill:#494c4d;fill-rule:nonzero;"/><path d="M130.69,51.883l32.517,-18.898l-32.72,-18.89l-32.517,18.896l-32.731,-18.896l-32.517,18.896l32.73,18.898l-32.517,18.896l32.72,18.891l32.518,-18.897l32.73,18.897l32.516,-18.897l-32.729,-18.896Z" style="fill:url(#_Linear7);"/><path d="M65.556,127.278l0.107,-37.608l-32.721,-18.892l-0.106,37.609l-32.73,-18.896l-0.106,37.609l32.729,18.897l-0.106,37.608l32.72,18.891l0.106,-37.609l32.731,18.897l0.106,-37.61l-32.73,-18.896Z" style="fill:#494c4d;fill-rule:nonzero;"/><path d="M163.311,108.385l0.106,-37.609l-32.508,18.892l-0.107,37.609l-32.516,18.896l-0.106,37.61l32.517,-18.898l-0.107,37.61l32.508,-18.892l0.106,-37.608l32.518,-18.898l0.106,-37.609l-32.517,18.897Z" style="fill:url(#_Linear8);"/></g><defs><linearGradient id="_Linear1" x1="0" y1="0" x2="1" y2="0" gradientUnits="userSpaceOnUse" gradientTransform="matrix(65.2468,0,0,65.2468,0.205855,89.5242)"><stop offset="0%" style="stop-color:#8e9191;stop-opacity:1"/><stop offset="100%" style="stop-color:#686b6c;stop-opacity:1"/></linearGradient><linearGradient id="_Linear2" x1="0" y1="0" x2="1" y2="0" gradientUnits="userSpaceOnUse" gradientTransform="matrix(65.2463,0,0,65.2463,130.561,89.5012)"><stop offset="0%" style="stop-color:#8e9191;stop-opacity:1"/><stop offset="100%" style="stop-color:#686b6c;stop-opacity:1"/></linearGradient><linearGradient id="_Linear3" x1="0" y1="0" x2="1" y2="0" gradientUnits="userSpaceOnUse" gradientTransform="matrix(65.2463,0,0,65.2463,65.5642,127.278)"><stop offset="0%" style="stop-color:#8e9191;stop-opacity:1"/><stop offset="100%" style="stop-color:#686b6c;stop-opacity:1"/></linearGradient><linearGradient id="_Linear4" x1="0" y1="0" x2="1" y2="0" gradientUnits="userSpaceOnUse" gradientTransform="matrix(32.6234,0,0,32.6234,65.3413,174.233)"><stop offset="0%" style="stop-color:#d7d9d8;stop-opacity:1"/><stop offset="100%" style="stop-color:#a3a6a6;stop-opacity:1"/></linearGradient><linearGradient id="_Linear5" x1="0" y1="0" x2="1" y2="0" gradientUnits="userSpaceOnUse" gradientTransform="matrix(32.6239,0,0,32.6239,130.59,61.2289)"><stop offset="0%" style="stop-color:#d7d9d8;stop-opacity:1"/><stop offset="100%" style="stop-color:#a3a6a6;stop-opacity:1"/></linearGradient><linearGradient id="_Linear6" x1="0" y1="0" x2="1" y2="0" gradientUnits="userSpaceOnUse" gradientTransform="matrix(32.6234,0,0,32.6234,65.5565,99.0334)"><stop offset="0%" style="stop-color:#d7d9d8;stop-opacity:1"/><stop offset="100%" style="stop-color:#a3a6a6;stop-opacity:1"/></linearGradient><linearGradient id="_Linear7" x1="0" y1="0" x2="1" y2="0" gradientUnits="userSpaceOnUse" gradientTransform="matrix(118.245,55.6761,-55.6761,118.245,44.5812,26.6991)"><stop offset="0%" style="stop-color:#8e9191;stop-opacity:1"/><stop offset="100%" style="stop-color:#686b6c;stop-opacity:1"/></linearGradient><linearGradient id="_Linear8" x1="0" y1="0" x2="1" y2="0" gradientUnits="userSpaceOnUse" gradientTransform="matrix(120.561,-12.0804,12.0804,120.561,99.0263,141.443)"><stop offset="0%" style="stop-color:#d7d9d8;stop-opacity:1"/><stop offset="100%" style="stop-color:#a3a6a6;stop-opacity:1"/></linearGradient></defs></svg>