<?xml version="1.0" standalone="no"?><!DOCTYPE svg PUBLIC "-//W3C//DTD SVG 1.1//EN" "http://www.w3.org/Graphics/SVG/1.1/DTD/svg11.dtd"><svg width="100%" height="100%" viewBox="0 0 842 596" version="1.1" xmlns="http://www.w3.org/2000/svg" xmlns:xlink="http://www.w3.org/1999/xlink" xml:space="preserve" style="fill-rule:evenodd;clip-rule:evenodd;stroke-linejoin:round;stroke-miterlimit:1.41421;"><g><rect x="327.729" y="199.522" width="4.258" height="216.188" style="fill:#403f41;"/><path d="M164.647,288.234l-32.729,-18.896l-32.518,18.896l32.731,18.898l32.516,-18.898Z" style="fill:#57348a;fill-rule:nonzero;"/><path d="M295.003,288.212l-32.731,-18.897l-32.516,18.897l32.729,18.896l32.518,-18.896Z" style="fill:#57348a;fill-rule:nonzero;"/><path d="M164.759,325.989l32.729,18.896l32.518,-18.897l-32.73,-18.896l-32.517,18.897Z" style="fill:#57348a;fill-rule:nonzero;"/><path d="M164.536,401.196l32.517,-18.896l0.107,-37.61l-32.517,18.898l-0.107,37.608Z" style="fill:#a493be;fill-rule:nonzero;"/><path d="M229.785,288.192l32.517,-18.897l0.107,-37.609l-32.517,18.898l-0.107,37.608Z" style="fill:#a493be;fill-rule:nonzero;"/><path d="M197.375,269.491l-32.517,18.896l-0.106,37.61l32.516,-18.898l0.107,-37.608Z" style="fill:#a493be;fill-rule:nonzero;"/><path d="M197.053,382.304l32.73,18.897l0.107,-37.608l-32.731,-18.897l-0.106,37.608Z" style="fill:#2a2a61;fill-rule:nonzero;"/><path d="M131.81,269.309l32.73,18.897l0.106,-37.609l-32.729,-18.896l-0.107,37.608Z" style="fill:#2a2a61;fill-rule:nonzero;"/><path d="M230.104,288.386l-32.729,-18.897l-0.107,37.609l32.73,18.897l0.106,-37.609Z" style="fill:#2a2a61;fill-rule:nonzero;"/><path d="M229.885,250.593l32.517,-18.897l-32.72,-18.892l-32.517,18.897l-32.73,-18.897l-32.518,18.898l32.73,18.896l-32.516,18.897l32.72,18.891l32.517,-18.897l32.73,18.896l32.516,-18.896l-32.729,-18.896Z" style="fill:#57348a;fill-rule:nonzero;"/><path d="M164.752,325.988l0.106,-37.608l-32.72,-18.892l-0.107,37.609l-32.73,-18.896l-0.106,37.609l32.73,18.897l-0.107,37.608l32.72,18.892l0.106,-37.61l32.731,18.897l0.106,-37.609l-32.729,-18.897Z" style="fill:#2a2a61;fill-rule:nonzero;"/><path d="M262.506,307.095l0.106,-37.609l-32.508,18.892l-0.106,37.609l-32.517,18.897l-0.106,37.609l32.517,-18.897l-0.107,37.609l32.508,-18.892l0.106,-37.608l32.518,-18.898l0.106,-37.609l-32.517,18.897Z" style="fill:#a493be;fill-rule:nonzero;"/><path d="M372.887,316.446l-5.435,7.827c4.4,3.753 11.128,7.375 21.351,7.375c11.189,0 18.825,-4.85 18.825,-14.684c0,-12.68 -12.228,-13.651 -19.927,-15.267c-4.268,-0.907 -9.38,-1.684 -9.38,-5.047c0,-3.753 5.176,-4.658 8.151,-4.658c4.593,0 9.317,1.94 13.391,4.852l5.694,-7.762c-5.176,-3.818 -10.414,-6.34 -18.697,-6.34c-8.344,0 -18.76,3.04 -18.76,14.297c0,11.321 12.808,13.52 18.76,14.49c5.499,0.97 10.545,1.942 10.545,5.693c0,2.654 -3.105,5.241 -8.732,5.241c-5.435,0 -12.357,-3.171 -15.786,-6.017ZM446.765,292.315l0,-8.862l-37.781,0l0,8.862l13.781,0l0,38.428l10.285,0l0,-38.428l13.715,0ZM440.036,330.743l11.257,0l3.624,-7.246l22.06,0l3.752,7.246l11.19,0l-25.942,-48.779l-25.941,48.779ZM459.961,314.764l6.016,-12.356l6.082,12.356l-12.098,0ZM504.859,330.743l0,-14.75l6.988,0c3.881,5.176 7.437,9.899 11.321,14.75l12.226,0c-3.817,-5.047 -8.152,-10.738 -12.226,-15.849c5.887,-2.524 9.638,-8.153 9.638,-15.01c0,-9.703 -6.922,-16.431 -17.078,-16.431l-21.026,0l0,47.29l10.157,0ZM504.859,307.132l0,-14.817l10.869,0c6.014,0 6.922,5.112 6.922,7.569c0,4.918 -3.754,7.248 -6.922,7.248l-10.869,0ZM574.598,292.315l0,-8.862l-37.781,0l0,8.862l13.78,0l0,38.428l10.287,0l0,-38.428l13.714,0ZM600.659,331.584c12.809,0 21.091,-7.893 21.091,-19.99l0,-28.076l-10.223,0l0,28.076c0,8.928 -6.856,11.192 -10.868,11.192c-4.14,0 -10.999,-2.264 -10.999,-11.192l0,-28.076l-10.22,0l0,28.076c0,12.097 8.345,19.99 21.219,19.99ZM646.525,283.453l-19.214,0l0,47.29l10.223,0l0,-13.779l8.927,0c12.68,0 19.148,-7.245 19.148,-16.563c0,-9.379 -7.18,-16.948 -19.084,-16.948ZM647.948,308.101l-10.414,0l0,-15.786l9.379,0c5.499,0 8.411,4.076 8.411,8.086c0,3.883 -2.265,7.7 -7.376,7.7Z" style="fill:#414042;fill-rule:nonzero;"/><path d="M372.887,251.754l-5.435,7.827c4.4,3.753 11.128,7.375 21.351,7.375c11.189,0 18.825,-4.851 18.825,-14.685c0,-12.679 -12.228,-13.65 -19.927,-15.266c-4.268,-0.909 -9.38,-1.684 -9.38,-5.047c0,-3.753 5.176,-4.658 8.151,-4.658c4.593,0 9.317,1.94 13.391,4.852l5.694,-7.763c-5.176,-3.817 -10.414,-6.339 -18.697,-6.339c-8.344,0 -18.76,3.039 -18.76,14.295c0,11.323 12.808,13.521 18.76,14.492c5.499,0.969 10.545,1.942 10.545,5.693c0,2.653 -3.105,5.24 -8.732,5.24c-5.435,0 -12.357,-3.171 -15.786,-6.016ZM473.678,218.826l-10.869,0l-9.315,24.518l-12.421,-25.748l-12.421,25.748l-9.123,-24.518l-10.996,0l18.891,48.973l13.649,-28.079l13.521,28.079l19.084,-48.973ZM489.914,218.761l-10.222,0l0,47.291l10.222,0l0,-47.291ZM503.435,251.754l-5.434,7.827c4.399,3.753 11.127,7.375 21.35,7.375c11.189,0 18.825,-4.851 18.825,-14.685c0,-12.679 -12.227,-13.65 -19.926,-15.266c-4.271,-0.909 -9.381,-1.684 -9.381,-5.047c0,-3.753 5.175,-4.658 8.151,-4.658c4.594,0 9.317,1.94 13.391,4.852l5.693,-7.763c-5.173,-3.817 -10.414,-6.339 -18.696,-6.339c-8.345,0 -18.761,3.039 -18.761,14.295c0,11.323 12.809,13.521 18.761,14.492c5.498,0.969 10.546,1.942 10.546,5.693c0,2.653 -3.104,5.24 -8.733,5.24c-5.435,0 -12.357,-3.171 -15.786,-6.016ZM549.172,251.754l-5.435,7.827c4.401,3.753 11.128,7.375 21.35,7.375c11.19,0 18.826,-4.851 18.826,-14.685c0,-12.679 -12.228,-13.65 -19.927,-15.266c-4.268,-0.909 -9.38,-1.684 -9.38,-5.047c0,-3.753 5.176,-4.658 8.151,-4.658c4.594,0 9.317,1.94 13.391,4.852l5.694,-7.763c-5.176,-3.817 -10.415,-6.339 -18.697,-6.339c-8.344,0 -18.76,3.039 -18.76,14.295c0,11.323 12.808,13.521 18.76,14.492c5.499,0.969 10.545,1.942 10.545,5.693c0,2.653 -3.106,5.24 -8.732,5.24c-5.435,0 -12.356,-3.171 -15.786,-6.016Z" style="fill:#414042;fill-rule:nonzero;"/><path d="M405.122,395.451l-35.231,0l0,-47.517l10.336,0l0,38.612l24.895,0l0,8.905Z" style="fill:#414042;fill-rule:nonzero;"/><path d="M419.518,367.435l22.75,0l0,8.97l-22.75,0l0,10.141l25.741,0l0,8.905l-36.012,0l0,-47.517l36.012,0l0,8.906l-25.741,0l0,10.595Z" style="fill:#414042;fill-rule:nonzero;"/><path d="M500.027,372.83c0,0.846 -0.064,1.756 -0.13,2.73c-1.04,12.156 -12.025,20.801 -24.831,20.801c-14.105,0 -25.61,-11.051 -25.61,-24.636c0,-13.52 11.505,-24.635 25.61,-24.635c8.841,0 16.836,4.485 21.517,11.44l-8.841,5.135c-2.925,-4.03 -7.54,-7.215 -12.676,-7.215c-8.45,0 -15.405,7.15 -15.405,15.275c0,8.125 6.955,15.341 15.405,15.341c6.111,0 12.351,-3.966 13.846,-9.036l-17.745,0l0,-9.035l28.73,0c0.066,1.301 0.13,2.795 0.13,3.835Z" style="fill:#414042;fill-rule:nonzero;"/><path d="M530.408,379.395l-6.11,-12.415l-6.045,12.415l12.155,0ZM524.298,346.439l26.065,49.012l-11.245,0l-3.769,-7.28l-22.167,0l-3.64,7.28l-11.311,0l26.067,-49.012Z" style="fill:#414042;fill-rule:nonzero;"/><path d="M589.369,395.451l-35.231,0l0,-47.517l10.336,0l0,38.612l24.895,0l0,8.905Z" style="fill:#414042;fill-rule:nonzero;"/></g></svg>