<?xml version="1.0" standalone="no"?><!DOCTYPE svg PUBLIC "-//W3C//DTD SVG 1.1//EN" "http://www.w3.org/Graphics/SVG/1.1/DTD/svg11.dtd"><svg width="100%" height="100%" viewBox="0 0 842 596" version="1.1" xmlns="http://www.w3.org/2000/svg" xmlns:xlink="http://www.w3.org/1999/xlink" xml:space="preserve" style="fill-rule:evenodd;clip-rule:evenodd;stroke-linejoin:round;stroke-miterlimit:1.41421;"><g><rect x="327.729" y="199.522" width="4.258" height="216.188" style="fill:#403f41;"/><path d="M164.647,288.234l-32.729,-18.896l-32.518,18.896l32.731,18.897l32.516,-18.897Z" style="fill:#e38f47;fill-rule:nonzero;"/><path d="M295.003,288.211l-32.731,-18.896l-32.516,18.897l32.729,18.896l32.518,-18.897Z" style="fill:#e38f47;fill-rule:nonzero;"/><path d="M164.759,325.989l32.729,18.896l32.518,-18.897l-32.73,-18.896l-32.517,18.897Z" style="fill:#e38f47;fill-rule:nonzero;"/><path d="M164.536,401.196l32.517,-18.897l0.107,-37.609l-32.517,18.897l-0.107,37.609Z" style="fill:#f5c75e;fill-rule:nonzero;"/><path d="M229.785,288.192l32.517,-18.897l0.107,-37.608l-32.517,18.896l-0.107,37.609Z" style="fill:#f5c75e;fill-rule:nonzero;"/><path d="M197.375,269.491l-32.517,18.897l-0.106,37.609l32.516,-18.897l0.107,-37.609Z" style="fill:#f5c75e;fill-rule:nonzero;"/><path d="M197.053,382.304l32.73,18.897l0.107,-37.609l-32.731,-18.896l-0.106,37.608Z" style="fill:#8a3c3e;fill-rule:nonzero;"/><path d="M131.81,269.31l32.73,18.896l0.106,-37.609l-32.729,-18.896l-0.107,37.609Z" style="fill:#8a3c3e;fill-rule:nonzero;"/><path d="M230.104,288.386l-32.729,-18.897l-0.107,37.609l32.73,18.897l0.106,-37.609Z" style="fill:#8a3c3e;fill-rule:nonzero;"/><path d="M229.885,250.592l32.517,-18.896l-32.72,-18.891l-32.517,18.896l-32.73,-18.896l-32.518,18.897l32.73,18.896l-32.516,18.897l32.72,18.891l32.517,-18.897l32.73,18.897l32.516,-18.897l-32.729,-18.897Z" style="fill:#e38f47;fill-rule:nonzero;"/><path d="M164.752,325.988l0.106,-37.608l-32.72,-18.891l-0.107,37.608l-32.73,-18.896l-0.106,37.609l32.73,18.897l-0.107,37.608l32.72,18.892l0.106,-37.609l32.731,18.896l0.106,-37.609l-32.729,-18.897Z" style="fill:#8a3c3e;fill-rule:nonzero;"/><path d="M262.506,307.095l0.106,-37.608l-32.508,18.891l-0.106,37.609l-32.517,18.896l-0.106,37.61l32.517,-18.897l-0.107,37.609l32.508,-18.892l0.106,-37.608l32.518,-18.897l0.106,-37.61l-32.517,18.897Z" style="fill:#f5c75e;fill-rule:nonzero;"/><path d="M405.169,357.008l0,-8.862l-37.78,0l0,8.862l13.778,0l0,38.428l10.287,0l0,-38.428l13.715,0ZM420.306,357.008l25.618,0l0,-8.862l-35.84,0l0,47.29l35.84,0l0,-8.863l-25.618,0l0,-10.093l22.643,0l0,-8.926l-22.643,0l0,-10.546ZM498.065,383.273l-9.508,-3.686c-2.848,4.139 -7.699,7.504 -12.939,7.504c-8.409,0 -15.204,-7.181 -15.204,-15.269c0,-8.086 6.795,-15.202 15.204,-15.202c5.24,0 10.091,3.298 12.939,7.375l9.508,-3.686c-4.527,-7.7 -12.938,-12.941 -22.447,-12.941c-14.037,0 -25.488,10.999 -25.488,24.454c0,13.523 11.451,24.519 25.488,24.519c9.509,0 17.92,-5.24 22.447,-13.068ZM546.327,348.146l-10.158,0l0,20.055l-22.19,0l0,-20.055l-10.156,0l0,47.29l10.156,0l0,-18.373l22.19,0l0,18.373l10.158,0l0,-47.29Z" style="fill:#403f41;fill-rule:nonzero;"/><path d="M372.887,316.446l-5.435,7.827c4.4,3.753 11.128,7.375 21.351,7.375c11.189,0 18.825,-4.851 18.825,-14.685c0,-12.679 -12.228,-13.65 -19.927,-15.266c-4.268,-0.907 -9.38,-1.684 -9.38,-5.047c0,-3.753 5.176,-4.658 8.151,-4.658c4.593,0 9.317,1.94 13.391,4.852l5.694,-7.762c-5.176,-3.818 -10.414,-6.34 -18.697,-6.34c-8.344,0 -18.76,3.04 -18.76,14.297c0,11.321 12.808,13.52 18.76,14.49c5.499,0.97 10.545,1.942 10.545,5.693c0,2.653 -3.105,5.24 -8.732,5.24c-5.435,0 -12.357,-3.171 -15.786,-6.016ZM446.765,292.315l0,-8.861l-37.781,0l0,8.861l13.781,0l0,38.428l10.285,0l0,-38.428l13.715,0ZM440.036,330.743l11.257,0l3.624,-7.246l22.06,0l3.752,7.246l11.19,0l-25.942,-48.779l-25.941,48.779ZM459.961,314.765l6.016,-12.357l6.082,12.357l-12.098,0ZM504.859,330.743l0,-14.75l6.988,0c3.881,5.176 7.437,9.899 11.321,14.75l12.226,0c-3.817,-5.047 -8.152,-10.738 -12.226,-15.849c5.887,-2.524 9.638,-8.153 9.638,-15.01c0,-9.703 -6.922,-16.43 -17.078,-16.43l-21.026,0l0,47.289l10.157,0ZM504.859,307.131l0,-14.816l10.869,0c6.014,0 6.922,5.111 6.922,7.569c0,4.917 -3.754,7.247 -6.922,7.247l-10.869,0ZM574.598,292.315l0,-8.861l-37.781,0l0,8.861l13.78,0l0,38.428l10.287,0l0,-38.428l13.714,0ZM600.659,331.583c12.809,0 21.091,-7.892 21.091,-19.989l0,-28.076l-10.223,0l0,28.076c0,8.928 -6.856,11.192 -10.868,11.192c-4.14,0 -10.999,-2.264 -10.999,-11.192l0,-28.076l-10.22,0l0,28.076c0,12.097 8.345,19.989 21.219,19.989ZM646.525,283.454l-19.214,0l0,47.289l10.223,0l0,-13.78l8.927,0c12.68,0 19.148,-7.245 19.148,-16.562c0,-9.379 -7.18,-16.947 -19.084,-16.947ZM647.948,308.102l-10.414,0l0,-15.787l9.379,0c5.499,0 8.411,4.077 8.411,8.086c0,3.883 -2.265,7.701 -7.376,7.701Z" style="fill:#403f41;fill-rule:nonzero;"/><path d="M372.887,251.753l-5.435,7.828c4.4,3.753 11.128,7.375 21.351,7.375c11.189,0 18.825,-4.851 18.825,-14.685c0,-12.68 -12.228,-13.65 -19.927,-15.267c-4.268,-0.907 -9.38,-1.683 -9.38,-5.046c0,-3.753 5.176,-4.659 8.151,-4.659c4.593,0 9.317,1.941 13.391,4.853l5.694,-7.763c-5.176,-3.817 -10.414,-6.34 -18.697,-6.34c-8.344,0 -18.76,3.04 -18.76,14.297c0,11.321 12.808,13.52 18.76,14.49c5.499,0.971 10.545,1.943 10.545,5.694c0,2.653 -3.105,5.24 -8.732,5.24c-5.435,0 -12.357,-3.171 -15.786,-6.017ZM473.678,218.826l-10.869,0l-9.315,24.518l-12.421,-25.747l-12.421,25.747l-9.123,-24.518l-10.996,0l18.891,48.972l13.649,-28.077l13.521,28.077l19.084,-48.972ZM489.914,218.761l-10.222,0l0,47.291l10.222,0l0,-47.291ZM503.435,251.753l-5.434,7.828c4.399,3.753 11.127,7.375 21.35,7.375c11.189,0 18.825,-4.851 18.825,-14.685c0,-12.68 -12.227,-13.65 -19.926,-15.267c-4.271,-0.907 -9.381,-1.683 -9.381,-5.046c0,-3.753 5.175,-4.659 8.151,-4.659c4.594,0 9.317,1.941 13.391,4.853l5.693,-7.763c-5.173,-3.817 -10.414,-6.34 -18.696,-6.34c-8.345,0 -18.761,3.04 -18.761,14.297c0,11.321 12.809,13.52 18.761,14.49c5.498,0.971 10.546,1.943 10.546,5.694c0,2.653 -3.104,5.24 -8.733,5.24c-5.435,0 -12.357,-3.171 -15.786,-6.017ZM549.172,251.753l-5.435,7.828c4.401,3.753 11.128,7.375 21.35,7.375c11.19,0 18.826,-4.851 18.826,-14.685c0,-12.68 -12.228,-13.65 -19.927,-15.267c-4.268,-0.907 -9.38,-1.683 -9.38,-5.046c0,-3.753 5.176,-4.659 8.151,-4.659c4.594,0 9.317,1.941 13.391,4.853l5.694,-7.763c-5.176,-3.817 -10.415,-6.34 -18.697,-6.34c-8.344,0 -18.76,3.04 -18.76,14.297c0,11.321 12.808,13.52 18.76,14.49c5.499,0.971 10.545,1.943 10.545,5.694c0,2.653 -3.106,5.24 -8.732,5.24c-5.435,0 -12.356,-3.171 -15.786,-6.017Z" style="fill:#403f41;fill-rule:nonzero;"/></g></svg>