<?xml version="1.0" standalone="no"?><!DOCTYPE svg PUBLIC "-//W3C//DTD SVG 1.1//EN" "http://www.w3.org/Graphics/SVG/1.1/DTD/svg11.dtd"><svg width="100%" height="100%" viewBox="0 0 567 217" version="1.1" xmlns="http://www.w3.org/2000/svg" xmlns:xlink="http://www.w3.org/1999/xlink" xml:space="preserve" style="fill-rule:evenodd;clip-rule:evenodd;stroke-linejoin:round;stroke-miterlimit:1.41421;"><g><rect x="228.534" y="0.813" width="4.258" height="216.187" style="fill:#403f41;"/><path d="M65.452,89.524l-32.73,-18.896l-32.517,18.896l32.73,18.897l32.517,-18.897Z" style="fill:#e38f47;fill-rule:nonzero;"/><path d="M195.808,89.502l-32.731,-18.897l-32.516,18.897l32.729,18.896l32.518,-18.896Z" style="fill:#e38f47;fill-rule:nonzero;"/><path d="M65.563,127.278l32.73,18.897l32.518,-18.897l-32.73,-18.897l-32.518,18.897Z" style="fill:#e38f47;fill-rule:nonzero;"/><path d="M65.341,202.485l32.516,-18.896l0.108,-37.609l-32.518,18.897l-0.106,37.608Z" style="fill:#f5c75e;fill-rule:nonzero;"/><path d="M130.59,89.482l32.517,-18.897l0.107,-37.608l-32.517,18.897l-0.107,37.608Z" style="fill:#f5c75e;fill-rule:nonzero;"/><path d="M98.18,70.781l-32.517,18.897l-0.107,37.608l32.517,-18.897l0.107,-37.608Z" style="fill:#f5c75e;fill-rule:nonzero;"/><path d="M97.857,183.594l32.731,18.897l0.107,-37.609l-32.731,-18.897l-0.107,37.609Z" style="fill:#8a3c3e;fill-rule:nonzero;"/><path d="M32.615,70.6l32.73,18.896l0.106,-37.609l-32.729,-18.896l-0.107,37.609Z" style="fill:#8a3c3e;fill-rule:nonzero;"/><path d="M130.909,89.676l-32.729,-18.897l-0.107,37.609l32.729,18.896l0.107,-37.608Z" style="fill:#8a3c3e;fill-rule:nonzero;"/><path d="M130.69,51.882l32.517,-18.896l-32.72,-18.891l-32.517,18.896l-32.731,-18.896l-32.517,18.897l32.73,18.896l-32.517,18.897l32.72,18.891l32.518,-18.897l32.73,18.897l32.516,-18.897l-32.729,-18.897Z" style="fill:#e38f47;fill-rule:nonzero;"/><path d="M65.556,127.278l0.107,-37.608l-32.721,-18.891l-0.106,37.608l-32.73,-18.896l-0.106,37.609l32.729,18.896l-0.106,37.609l32.72,18.891l0.106,-37.609l32.731,18.897l0.106,-37.609l-32.73,-18.897Z" style="fill:#8a3c3e;fill-rule:nonzero;"/><path d="M163.311,108.385l0.106,-37.608l-32.508,18.891l-0.107,37.608l-32.516,18.897l-0.106,37.609l32.517,-18.896l-0.107,37.608l32.508,-18.891l0.106,-37.609l32.518,-18.897l0.106,-37.609l-32.517,18.897Z" style="fill:#f5c75e;fill-rule:nonzero;"/><path d="M305.974,158.298l0,-8.862l-37.78,0l0,8.862l13.778,0l0,38.427l10.287,0l0,-38.427l13.715,0ZM321.111,158.298l25.618,0l0,-8.862l-35.84,0l0,47.289l35.84,0l0,-8.862l-25.618,0l0,-10.093l22.643,0l0,-8.927l-22.643,0l0,-10.545ZM398.87,184.563l-9.508,-3.686c-2.848,4.139 -7.699,7.503 -12.939,7.503c-8.409,0 -15.204,-7.18 -15.204,-15.268c0,-8.086 6.795,-15.202 15.204,-15.202c5.24,0 10.091,3.298 12.939,7.375l9.508,-3.687c-4.527,-7.699 -12.938,-12.94 -22.447,-12.94c-14.037,0 -25.488,10.998 -25.488,24.454c0,13.522 11.451,24.518 25.488,24.518c9.509,0 17.92,-5.24 22.447,-13.067ZM447.132,149.436l-10.158,0l0,20.054l-22.189,0l0,-20.054l-10.157,0l0,47.289l10.157,0l0,-18.373l22.189,0l0,18.373l10.158,0l0,-47.289Z" style="fill:#403f41;fill-rule:nonzero;"/><path d="M273.692,117.736l-5.435,7.827c4.401,3.753 11.128,7.375 21.351,7.375c11.189,0 18.825,-4.851 18.825,-14.685c0,-12.68 -12.228,-13.65 -19.927,-15.267c-4.268,-0.907 -9.38,-1.683 -9.38,-5.046c0,-3.752 5.176,-4.658 8.151,-4.658c4.593,0 9.317,1.94 13.391,4.852l5.694,-7.762c-5.176,-3.818 -10.414,-6.34 -18.697,-6.34c-8.344,0 -18.76,3.04 -18.76,14.297c0,11.321 12.808,13.52 18.76,14.489c5.499,0.971 10.545,1.943 10.545,5.694c0,2.653 -3.105,5.24 -8.732,5.24c-5.435,0 -12.357,-3.171 -15.786,-6.016ZM347.57,93.606l0,-8.862l-37.781,0l0,8.862l13.781,0l0,38.426l10.285,0l0,-38.426l13.715,0ZM340.841,132.032l11.257,0l3.624,-7.245l22.06,0l3.752,7.245l11.19,0l-25.941,-48.778l-25.942,48.778ZM360.766,116.054l6.017,-12.356l6.081,12.356l-12.098,0ZM405.664,132.032l0,-14.749l6.988,0c3.882,5.176 7.438,9.899 11.321,14.749l12.227,0c-3.818,-5.046 -8.153,-10.737 -12.227,-15.848c5.887,-2.525 9.638,-8.153 9.638,-15.011c0,-9.702 -6.922,-16.429 -17.077,-16.429l-21.027,0l0,47.288l10.157,0ZM405.664,108.421l0,-14.815l10.87,0c6.014,0 6.921,5.11 6.921,7.567c0,4.918 -3.753,7.248 -6.921,7.248l-10.87,0ZM475.403,93.606l0,-8.862l-37.781,0l0,8.862l13.78,0l0,38.426l10.287,0l0,-38.426l13.714,0ZM501.464,132.873c12.809,0 21.091,-7.892 21.091,-19.99l0,-28.075l-10.224,0l0,28.075c0,8.929 -6.855,11.193 -10.867,11.193c-4.139,0 -10.999,-2.264 -10.999,-11.193l0,-28.075l-10.22,0l0,28.075c0,12.098 8.345,19.99 21.219,19.99ZM547.33,84.744l-19.213,0l0,47.288l10.222,0l0,-13.779l8.927,0c12.68,0 19.148,-7.245 19.148,-16.562c0,-9.379 -7.18,-16.947 -19.084,-16.947ZM548.753,109.391l-10.414,0l0,-15.785l9.379,0c5.499,0 8.411,4.076 8.411,8.085c0,3.882 -2.265,7.7 -7.376,7.7Z" style="fill:#403f41;fill-rule:nonzero;"/><path d="M273.692,53.044l-5.435,7.827c4.401,3.753 11.128,7.375 21.351,7.375c11.189,0 18.825,-4.851 18.825,-14.685c0,-12.68 -12.228,-13.65 -19.927,-15.267c-4.268,-0.907 -9.38,-1.683 -9.38,-5.046c0,-3.753 5.176,-4.659 8.151,-4.659c4.593,0 9.317,1.941 13.391,4.853l5.694,-7.763c-5.176,-3.817 -10.414,-6.34 -18.697,-6.34c-8.344,0 -18.76,3.04 -18.76,14.297c0,11.322 12.808,13.52 18.76,14.491c5.499,0.97 10.545,1.942 10.545,5.693c0,2.653 -3.105,5.24 -8.732,5.24c-5.435,0 -12.357,-3.171 -15.786,-6.016ZM374.483,20.116l-10.869,0l-9.315,24.518l-12.421,-25.747l-12.421,25.747l-9.123,-24.518l-10.996,0l18.891,48.972l13.649,-28.077l13.521,28.077l19.084,-48.972ZM390.719,20.051l-10.222,0l0,47.291l10.222,0l0,-47.291ZM404.24,53.044l-5.434,7.827c4.399,3.753 11.127,7.375 21.35,7.375c11.189,0 18.825,-4.851 18.825,-14.685c0,-12.68 -12.227,-13.65 -19.925,-15.267c-4.271,-0.907 -9.382,-1.683 -9.382,-5.046c0,-3.753 5.176,-4.659 8.152,-4.659c4.593,0 9.316,1.941 13.39,4.853l5.693,-7.763c-5.173,-3.817 -10.414,-6.34 -18.696,-6.34c-8.345,0 -18.761,3.04 -18.761,14.297c0,11.322 12.809,13.52 18.761,14.491c5.499,0.97 10.546,1.942 10.546,5.693c0,2.653 -3.104,5.24 -8.733,5.24c-5.435,0 -12.357,-3.171 -15.786,-6.016ZM449.977,53.044l-5.435,7.827c4.401,3.753 11.128,7.375 21.35,7.375c11.19,0 18.826,-4.851 18.826,-14.685c0,-12.68 -12.227,-13.65 -19.927,-15.267c-4.268,-0.907 -9.38,-1.683 -9.38,-5.046c0,-3.753 5.176,-4.659 8.151,-4.659c4.594,0 9.317,1.941 13.391,4.853l5.694,-7.763c-5.176,-3.817 -10.415,-6.34 -18.696,-6.34c-8.345,0 -18.761,3.04 -18.761,14.297c0,11.322 12.808,13.52 18.761,14.491c5.499,0.97 10.544,1.942 10.544,5.693c0,2.653 -3.106,5.24 -8.732,5.24c-5.435,0 -12.356,-3.171 -15.786,-6.016Z" style="fill:#403f41;fill-rule:nonzero;"/></g></svg>